<?xml version="1.0" encoding="UTF-8"?>
<svg width="122px" height="32px" viewBox="0 0 122 32" version="1.1" xmlns="http://www.w3.org/2000/svg" xmlns:xlink="http://www.w3.org/1999/xlink">
    <!-- Generator: sketchtool 62 (101010) - https://sketch.com -->
    <title>D705BFB7-EB76-4A6A-95E8-2D632CF834F6</title>
    <desc>Created with sketchtool.</desc>
    <g id="page" stroke="none" stroke-width="1" fill="none" fill-rule="evenodd">
        <g id="1.1-MENU" transform="translate(-30.000000, -33.000000)" fill="#29B6FF" fill-rule="nonzero">
            <g id="MENU">
                <path d="M70.1999128,34.3798971 C61.7493484,34.3798971 54.9042874,41.2331434 54.9042874,49.6922865 C54.9042874,58.1467537 61.7493484,65 70.1999128,65 C78.6463245,65 85.4955381,58.1467537 85.4955381,49.6922865 C85.4955381,41.2331434 78.6463245,34.3798971 70.1999128,34.3798971 Z M70.1656537,62.6262238 C63.0283527,62.6262238 57.2422077,56.8349163 57.2422077,49.6922865 C57.2422077,42.5460198 63.0283527,36.756271 70.1656537,36.756271 C77.3091836,36.756271 83.0953286,42.5460198 83.0953286,49.6922865 C83.0953286,56.8349163 77.3091836,62.6262238 70.1656537,62.6262238 Z M65.139748,40.4745637 L69.5420353,44.8771419 L69.5420353,46.409264 L66.5967956,49.363366 L65.139748,49.363366 L60.8635964,45.0766451 L60.0849817,47.5345868 L60.6492178,50.9079571 L64.2926153,54.5587616 L69.5420353,54.6476028 L74.321172,59.9084604 C74.321172,59.9084604 78.0055766,58.8454825 80.1898502,54.3483481 L75.006872,49.4080464 L74.8828127,44.0999107 L71.5103731,40.4745637 L67.3266171,39.7851347 L65.139748,40.4745637 Z M57.3327865,37.9740717 L59.0182277,35.6636793 L41.2850194,35.6636793 L36.107232,41.7220301 L31.3582017,41.7220301 C31.3582017,41.7220301 28.7259651,43.6677057 30.790332,44.6085919 C32.5650544,45.4118 32.718701,45.4741447 32.7332351,45.4741447 L31.0451986,48.1606838 L31.0451986,63.7198545 L39.6613483,63.7198545 L39.6613483,60.8083549 L55.9593103,60.8083549 C55.9593103,60.8083549 50.6247617,54.9614566 52.7140444,44.4090887 L36.8521067,44.4729921 L41.9738338,37.9740717 L57.3327865,37.9740717 Z M40.7898205,48.5986557 C40.7898205,48.5986557 42.6626483,50.0008929 41.8845528,51.4701508 C41.1012664,52.9388892 36.6392853,52.063465 34.830823,51.4701508 C34.830823,51.4701508 33.6701681,50.5645934 33.5782916,49.8486678 C33.4864151,49.1265078 33.8264101,47.9372818 33.8264101,47.9372818 C33.8264101,47.9372818 37.8549623,48.9420714 40.7898205,48.5986557 Z M94.7586647,46.251376 C95.1593918,45.7588525 95.6291559,45.410761 96.1643237,45.201906 C96.6989724,44.9925316 97.2798189,44.8896628 97.9032298,44.8896628 C99.0031528,44.8896628 99.9333377,45.2096992 100.69067,45.8482132 C101.451636,46.4903642 101.901676,47.3761791 102.050651,48.5051386 L107.893894,48.5051386 C107.803056,47.2255126 107.509258,46.0638222 107.000044,45.0242236 C106.497578,43.9815076 105.80513,43.0904973 104.926853,42.344958 C104.049614,41.6035751 103.024438,41.0346793 101.849249,40.6471028 C100.675098,40.2616044 99.3748115,40.0672966 97.9473512,40.0672966 C96.4015417,40.0672966 94.9953636,40.2912182 93.7360842,40.7349049 C92.4684995,41.182748 91.3903777,41.8607472 90.4991235,42.7673437 C89.6089074,43.6770575 88.9169785,44.8439433 88.4259322,46.2742357 C87.9348859,47.7029695 87.6878056,49.3987466 87.6878056,51.3626062 C87.6878056,53.3249071 87.9348859,55.0466611 88.4259322,56.5200753 C88.9169785,57.9903723 89.6089074,59.2273959 90.4991235,60.2223142 C91.3903777,61.2203498 92.4565608,61.9674476 93.687291,62.4584125 C94.9221738,62.9462602 96.2837113,63.1930414 97.768789,63.1930414 C99.1080062,63.1930414 100.349118,62.983667 101.492124,62.5685549 C102.63565,62.1518842 103.655635,61.5715585 104.547927,60.8275778 C105.440739,60.0830777 106.178346,59.1889501 106.755559,58.1493514 C107.336925,57.107155 107.700798,55.9459841 107.849772,54.6647996 L102.006529,54.6647996 C101.887141,55.8576624 101.426202,56.7637394 100.624748,57.3892651 C99.8206981,58.0147906 98.8541778,58.3265143 97.7231102,58.3265143 C96.5956762,58.3265143 95.6016448,57.7467083 94.7373826,56.5865764 C93.8757157,55.4233274 93.4443632,53.6387089 93.4443632,51.2285649 C93.4443632,50.0388193 93.5621935,49.0329907 93.8009687,48.2162746 C94.0361103,47.3959216 94.3594949,46.7423408 94.7586647,46.251376 Z M109.528881,38.3881448 L115.30724,38.3881448 L115.30724,33.006754 L109.528881,33.006754 L109.528881,38.3881448 Z M109.528881,63.1748575 L115.30724,63.1748575 L115.30724,40.0111863 L109.528881,40.0111863 L109.528881,63.1748575 Z M116.978147,63.1821311 L122.753391,63.1821311 L122.753391,33 L116.978147,33 L116.978147,63.1821311 Z M124.467901,38.3855471 L130.244183,38.3855471 L130.244183,33.0031172 L124.467901,33.0031172 L124.467901,38.3855471 Z M124.467901,63.1800529 L130.244183,63.1800529 L130.244183,40.000276 L124.467901,40.000276 L124.467901,63.1800529 Z M146.165452,63.1612976 C145.990004,62.5960385 145.872692,61.3740815 145.814037,60.6311399 C145.129375,61.4021366 144.228777,62.0188301 143.102901,62.478103 C141.976505,62.9347783 140.673104,63.1675321 139.193217,63.1675321 C136.674138,63.1675321 134.832456,62.6121442 133.661419,61.4977318 C132.490902,60.3879954 131.904865,58.9426364 131.904865,57.1611351 C131.904865,55.5905671 132.155579,54.3405549 132.659602,53.4048642 C133.161029,52.4681344 133.860745,51.7361031 134.749403,51.201497 C135.637024,50.6679298 136.697497,50.2777556 137.928227,50.0237007 C139.153767,49.7732827 140.496618,49.5431266 141.948475,49.3347913 C143.398255,49.1285341 144.377233,48.8521391 144.881776,48.5118406 C145.382684,48.1720618 145.635993,47.6166739 145.635993,46.8430796 C145.635993,46.1333886 145.302227,45.5759226 144.636252,45.1748381 C143.970277,44.7742731 143.072794,44.5763284 141.948475,44.5763284 C140.617044,44.5763284 139.659348,44.8719465 139.080058,45.4657802 C138.502326,46.0575358 138.140529,46.8430796 137.990516,47.8203334 L132.614442,47.8203334 C132.644548,46.6950108 132.830897,45.6595684 133.171411,44.7093306 C133.510887,43.7601318 134.061108,42.9449743 134.814288,42.2597016 C135.569025,41.5817025 136.554232,41.0548894 137.768352,40.6813404 C138.981434,40.3129869 140.457687,40.1301089 142.202303,40.1301089 C143.913698,40.1301089 145.367112,40.3202604 146.562545,40.7067978 C147.75694,41.0917767 148.716712,41.6471644 149.441861,42.3729612 C150.164417,43.1003166 150.688684,44.0037958 151.012068,45.0875554 C151.340124,46.1718345 151.5,47.3917134 151.5,48.7549852 L151.5,63.1612976 L146.165452,63.1612976 Z M145.768877,51.8696247 C145.47456,52.1668014 145.041652,52.4016333 144.478453,52.5803549 C143.917331,52.7564788 143.102901,52.9523453 142.034642,53.1601611 C140.375154,53.4843537 139.235781,53.8984268 138.613408,54.4044583 C137.990516,54.9084116 137.682705,55.6342084 137.682705,56.5854853 C137.682705,58.215281 138.613408,59.0325167 140.480527,59.0325167 C141.219172,59.0325167 141.910063,58.9036708 142.548008,58.6522138 C143.185433,58.4028348 143.731502,58.0604581 144.191923,57.6297599 C144.650267,57.1990615 145.017774,56.6930301 145.302227,56.1168607 C145.583048,55.5375741 145.724236,54.9229588 145.724236,54.2714562 L145.768877,51.8696247 Z" id="logo_color"></path>
            </g>
        </g>
    </g>
</svg>